<svg xmlns="http://www.w3.org/2000/svg" xmlns:xlink="http://www.w3.org/1999/xlink" width="375" viewBox="0 0 375 187.5" height="187.5" version="1.0"><defs><clipPath id="a"><path d="M 5.757812 23.269531 L 124.691406 23.269531 L 124.691406 172.121094 L 5.757812 172.121094 Z M 5.757812 23.269531"/></clipPath><clipPath id="b"><path d="M 88.699219 140.15625 L 88.699219 117.207031 L 33.269531 117.207031 L 33.269531 130.445312 C 36.664062 131.070312 39.449219 133.421875 40.679688 136.554688 L 61.183594 136.554688 C 62.304688 135 64.132812 133.988281 66.199219 133.988281 C 69.609375 133.988281 72.375 136.75 72.375 140.15625 C 72.375 143.558594 69.609375 146.320312 66.199219 146.320312 C 64.132812 146.320312 62.304688 145.308594 61.183594 143.753906 L 40.679688 143.753906 C 39.945312 145.628906 38.648438 147.222656 37.003906 148.335938 C 37.90625 150.140625 39.09375 151.777344 40.507812 153.1875 C 43.859375 156.535156 48.484375 158.613281 53.566406 158.613281 L 90.636719 158.613281 C 92.078125 154.941406 95.660156 152.339844 99.851562 152.339844 C 104.042969 152.339844 107.621094 154.941406 109.0625 158.613281 C 109.503906 159.726562 109.742188 160.945312 109.742188 162.214844 C 109.742188 167.667969 105.3125 172.085938 99.851562 172.085938 C 95.660156 172.085938 92.078125 169.488281 90.636719 165.8125 L 53.566406 165.8125 C 46.492188 165.8125 40.0625 162.929688 35.40625 158.28125 C 33.019531 155.898438 31.09375 153.046875 29.789062 149.886719 C 25.667969 149.183594 22.417969 145.941406 21.714844 141.828125 C 18.550781 140.523438 15.695312 138.605469 13.308594 136.21875 C 8.648438 131.570312 5.757812 125.15625 5.757812 118.097656 C 5.757812 113.351562 7.070312 108.890625 9.351562 105.0625 C 10 103.972656 10.726562 102.933594 11.527344 101.953125 C 11.179688 100.945312 10.992188 99.871094 10.992188 98.746094 C 10.992188 97.089844 11.40625 95.523438 12.128906 94.152344 C 11.089844 92.96875 10.160156 91.691406 9.351562 90.332031 C 7.070312 86.5 5.757812 82.042969 5.757812 77.296875 C 5.757812 70.238281 8.648438 63.820312 13.308594 59.171875 C 15.695312 56.789062 18.546875 54.871094 21.714844 53.5625 C 22.417969 49.453125 25.667969 46.207031 29.789062 45.507812 C 31.09375 42.34375 33.019531 39.496094 35.40625 37.113281 C 40.0625 32.464844 46.492188 29.578125 53.566406 29.578125 L 90.636719 29.578125 C 92.078125 25.90625 95.660156 23.304688 99.851562 23.304688 C 104.042969 23.304688 107.621094 25.90625 109.0625 29.578125 C 109.503906 30.695312 109.742188 31.910156 109.742188 33.179688 C 109.742188 34.449219 109.503906 35.664062 109.0625 36.777344 L 109.0625 36.78125 C 107.621094 40.453125 104.042969 43.054688 99.851562 43.054688 C 95.660156 43.054688 92.078125 40.453125 90.636719 36.78125 L 53.566406 36.78125 C 48.484375 36.78125 43.859375 38.859375 40.507812 42.203125 C 39.09375 43.617188 37.90625 45.253906 37.003906 47.054688 C 38.648438 48.167969 39.945312 49.765625 40.679688 51.636719 L 61.183594 51.636719 C 62.304688 50.082031 64.132812 49.074219 66.199219 49.074219 C 69.609375 49.074219 72.375 51.832031 72.375 55.238281 C 72.375 58.644531 69.609375 61.402344 66.199219 61.402344 C 64.132812 61.402344 62.304688 60.390625 61.183594 58.839844 L 40.679688 58.839844 C 39.449219 61.972656 36.664062 64.324219 33.269531 64.945312 L 33.269531 78.1875 L 75.945312 78.1875 C 76.675781 76.214844 78.578125 74.808594 80.808594 74.808594 C 83.675781 74.808594 86 77.125 86 79.988281 C 86 80.621094 85.886719 81.226562 85.675781 81.789062 C 84.945312 83.761719 83.042969 85.167969 80.808594 85.167969 C 78.578125 85.167969 76.675781 83.761719 75.945312 81.789062 L 29.660156 81.789062 L 29.660156 64.945312 C 27.007812 64.460938 24.726562 62.914062 23.269531 60.765625 C 21.460938 61.664062 19.824219 62.851562 18.410156 64.261719 C 15.054688 67.609375 12.972656 72.222656 12.972656 77.296875 C 12.972656 80.71875 13.914062 83.925781 15.550781 86.675781 C 16.136719 87.660156 16.8125 88.585938 17.566406 89.445312 C 18.605469 89.074219 19.722656 88.875 20.886719 88.875 C 25.734375 88.875 29.765625 92.355469 30.613281 96.949219 L 97.855469 96.949219 L 97.855469 60.097656 C 95.878906 59.363281 94.472656 57.464844 94.472656 55.238281 C 94.472656 52.378906 96.792969 50.058594 99.660156 50.058594 C 102.523438 50.058594 104.847656 52.378906 104.847656 55.238281 C 104.847656 57.464844 103.4375 59.363281 101.464844 60.097656 L 101.464844 78.1875 L 114.636719 78.1875 C 115.367188 76.214844 117.273438 74.808594 119.503906 74.808594 C 122.367188 74.808594 124.691406 77.125 124.691406 79.988281 C 124.691406 82.847656 122.367188 85.167969 119.503906 85.167969 C 117.273438 85.167969 115.367188 83.761719 114.636719 81.789062 L 101.464844 81.789062 L 101.464844 100.546875 L 30.613281 100.546875 C 29.765625 105.144531 25.734375 108.625 20.886719 108.625 C 19.242188 108.625 17.695312 108.222656 16.332031 107.515625 C 16.054688 107.90625 15.796875 108.308594 15.550781 108.71875 C 13.914062 111.46875 12.972656 114.675781 12.972656 118.097656 C 12.972656 123.167969 15.054688 127.78125 18.410156 131.128906 C 19.824219 132.542969 21.460938 133.726562 23.269531 134.628906 C 24.726562 132.480469 27.007812 130.933594 29.660156 130.445312 L 29.660156 113.605469 L 105.515625 113.605469 C 106.246094 111.632812 108.148438 110.226562 110.378906 110.226562 C 112.613281 110.226562 114.515625 111.632812 115.246094 113.605469 C 115.457031 114.167969 115.570312 114.773438 115.570312 115.40625 C 115.570312 116.039062 115.457031 116.644531 115.246094 117.207031 C 114.515625 119.179688 112.613281 120.585938 110.378906 120.585938 C 108.148438 120.585938 106.246094 119.179688 105.515625 117.207031 L 92.308594 117.207031 L 92.308594 138.355469 L 114.636719 138.355469 C 115.367188 136.382812 117.273438 134.976562 119.503906 134.976562 C 122.367188 134.976562 124.691406 137.292969 124.691406 140.15625 C 124.691406 143.015625 122.367188 145.332031 119.503906 145.332031 C 117.273438 145.332031 115.367188 143.929688 114.636719 141.957031 L 88.703125 141.957031 L 88.703125 140.15625 Z M 88.699219 140.15625" clip-rule="evenodd"/></clipPath><linearGradient x1="1088.808" gradientTransform="matrix(.017 0 0 .01696 5.76 23.305)" xmlns:xlink="http://www.w3.org/1999/xlink" y1="9361.583" x2="6356.907" gradientUnits="userSpaceOnUse" y2="-347.951" xlink:type="simple" xlink:actuate="onLoad" id="c" xlink:show="other"><stop stop-color="#2F60AB" offset="0"/><stop stop-color="#2F61AB" offset=".004"/><stop stop-color="#2F61AC" offset=".008"/><stop stop-color="#3062AC" offset=".012"/><stop stop-color="#3063AD" offset=".016"/><stop stop-color="#3063AD" offset=".02"/><stop stop-color="#3064AD" offset=".023"/><stop stop-color="#3065AE" offset=".027"/><stop stop-color="#3065AE" offset=".031"/><stop stop-color="#3066AF" offset=".035"/><stop stop-color="#3067AF" offset=".039"/><stop stop-color="#3167B0" offset=".043"/><stop stop-color="#3168B0" offset=".047"/><stop stop-color="#3169B1" offset=".051"/><stop stop-color="#3169B1" offset=".055"/><stop stop-color="#316AB2" offset=".059"/><stop stop-color="#316BB2" offset=".063"/><stop stop-color="#316BB2" offset=".066"/><stop stop-color="#316CB3" offset=".07"/><stop stop-color="#326DB3" offset=".074"/><stop stop-color="#326DB4" offset=".078"/><stop stop-color="#326EB4" offset=".082"/><stop stop-color="#326FB5" offset=".086"/><stop stop-color="#326FB5" offset=".09"/><stop stop-color="#3270B6" offset=".094"/><stop stop-color="#3271B6" offset=".098"/><stop stop-color="#3271B7" offset=".102"/><stop stop-color="#3372B7" offset=".105"/><stop stop-color="#3373B7" offset=".109"/><stop stop-color="#3373B8" offset=".113"/><stop stop-color="#3374B8" offset=".117"/><stop stop-color="#3375B9" offset=".121"/><stop stop-color="#3375B9" offset=".125"/><stop stop-color="#3376BA" offset=".129"/><stop stop-color="#3377BA" offset=".133"/><stop stop-color="#37B" offset=".137"/><stop stop-color="#3478BB" offset=".141"/><stop stop-color="#3479BC" offset=".145"/><stop stop-color="#3479BC" offset=".148"/><stop stop-color="#347ABC" offset=".152"/><stop stop-color="#347BBD" offset=".156"/><stop stop-color="#347BBD" offset=".16"/><stop stop-color="#347CBE" offset=".164"/><stop stop-color="#347DBE" offset=".168"/><stop stop-color="#357DBF" offset=".172"/><stop stop-color="#357EBF" offset=".176"/><stop stop-color="#357FC0" offset=".18"/><stop stop-color="#357FC0" offset=".184"/><stop stop-color="#3580C1" offset=".188"/><stop stop-color="#3581C1" offset=".191"/><stop stop-color="#3582C1" offset=".195"/><stop stop-color="#3582C2" offset=".199"/><stop stop-color="#3683C2" offset=".203"/><stop stop-color="#3684C3" offset=".207"/><stop stop-color="#3684C3" offset=".211"/><stop stop-color="#3685C4" offset=".215"/><stop stop-color="#3686C4" offset=".219"/><stop stop-color="#3686C5" offset=".223"/><stop stop-color="#3687C5" offset=".227"/><stop stop-color="#3688C6" offset=".23"/><stop stop-color="#3788C6" offset=".234"/><stop stop-color="#3789C6" offset=".238"/><stop stop-color="#378AC7" offset=".242"/><stop stop-color="#378AC7" offset=".246"/><stop stop-color="#378BC8" offset=".25"/><stop stop-color="#378BC8" offset=".258"/><stop stop-color="#378CC9" offset=".266"/><stop stop-color="#378DC9" offset=".273"/><stop stop-color="#388DC9" offset=".281"/><stop stop-color="#388ECA" offset=".289"/><stop stop-color="#388FCA" offset=".297"/><stop stop-color="#388FCB" offset=".302"/><stop stop-color="#3890CB" offset=".305"/><stop stop-color="#3890CB" offset=".313"/><stop stop-color="#3891CC" offset=".32"/><stop stop-color="#3891CC" offset=".328"/><stop stop-color="#3892CD" offset=".336"/><stop stop-color="#3993CD" offset=".344"/><stop stop-color="#3993CE" offset=".352"/><stop stop-color="#3994CE" offset=".359"/><stop stop-color="#3995CE" offset=".367"/><stop stop-color="#3995CF" offset=".375"/><stop stop-color="#3996CF" offset=".383"/><stop stop-color="#3997D0" offset=".391"/><stop stop-color="#3997D0" offset=".398"/><stop stop-color="#3A98D1" offset=".406"/><stop stop-color="#3A99D1" offset=".414"/><stop stop-color="#3A99D2" offset=".422"/><stop stop-color="#3A9AD2" offset=".43"/><stop stop-color="#3A9BD2" offset=".438"/><stop stop-color="#3A9BD3" offset=".445"/><stop stop-color="#3A9CD3" offset=".453"/><stop stop-color="#3B9DD4" offset=".461"/><stop stop-color="#3B9DD4" offset=".469"/><stop stop-color="#3B9ED5" offset=".477"/><stop stop-color="#3B9FD5" offset=".484"/><stop stop-color="#3B9FD6" offset=".492"/><stop stop-color="#3BA0D6" offset=".5"/><stop stop-color="#3BA1D7" offset=".508"/><stop stop-color="#3BA1D7" offset=".516"/><stop stop-color="#3CA2D7" offset=".523"/><stop stop-color="#3CA3D8" offset=".531"/><stop stop-color="#3CA3D8" offset=".539"/><stop stop-color="#3CA4D9" offset=".547"/><stop stop-color="#3CA5D9" offset=".555"/><stop stop-color="#3CA5DA" offset=".563"/><stop stop-color="#3CA6DA" offset=".57"/><stop stop-color="#3DA7DB" offset=".578"/><stop stop-color="#3DA7DB" offset=".586"/><stop stop-color="#3DA8DB" offset=".594"/><stop stop-color="#3DA9DC" offset=".602"/><stop stop-color="#3DA9DC" offset=".609"/><stop stop-color="#3DAADD" offset=".617"/><stop stop-color="#3DABDD" offset=".625"/><stop stop-color="#3DABDE" offset=".633"/><stop stop-color="#3EACDE" offset=".641"/><stop stop-color="#3EADDF" offset=".648"/><stop stop-color="#3EADDF" offset=".656"/><stop stop-color="#3EAEDF" offset=".664"/><stop stop-color="#3EAFE0" offset=".672"/><stop stop-color="#3EB0E0" offset=".68"/><stop stop-color="#3EB0E1" offset=".688"/><stop stop-color="#3EB1E1" offset=".695"/><stop stop-color="#3FB2E2" offset=".698"/><stop stop-color="#3FB2E2" offset=".703"/><stop stop-color="#3FB2E2" offset=".711"/><stop stop-color="#3FB3E3" offset=".719"/><stop stop-color="#3FB4E3" offset=".727"/><stop stop-color="#3FB4E4" offset=".734"/><stop stop-color="#3FB5E4" offset=".742"/><stop stop-color="#3FB6E4" offset=".75"/><stop stop-color="#40B6E5" offset=".758"/><stop stop-color="#40B7E5" offset=".766"/><stop stop-color="#40B8E6" offset=".773"/><stop stop-color="#40B8E6" offset=".781"/><stop stop-color="#40B9E7" offset=".789"/><stop stop-color="#40BAE7" offset=".797"/><stop stop-color="#40BAE8" offset=".805"/><stop stop-color="#40BBE8" offset=".813"/><stop stop-color="#41BCE8" offset=".82"/><stop stop-color="#41BCE9" offset=".828"/><stop stop-color="#41BDE9" offset=".836"/><stop stop-color="#41BEEA" offset=".844"/><stop stop-color="#41BEEA" offset=".875"/><stop stop-color="#41BEEA" offset="1"/></linearGradient></defs><g><g><g><path d="M 38.96875 0 L 15.71875 0 L 0.9375 -53.03125 L 20.265625 -53.03125 L 21.921875 -43.203125 L 27.1875 -16.84375 L 28.328125 -16.84375 L 35.046875 -42.078125 L 36.703125 -53.03125 L 55.40625 -53.03125 Z M 38.96875 0" transform="translate(127.229 78.885)"/></g></g></g><g><g><g><path d="M 57.0625 -17.359375 L 57.78125 0 L 38.5625 0 L 39.484375 -15.40625 L 39.390625 -18.40625 L 31.109375 -18.609375 L 23.875 -18.40625 L 23.875 -17.359375 L 24.703125 0 L 5.484375 0 L 6.40625 -15.40625 L 5.484375 -53.03125 L 25.015625 -53.03125 L 24.390625 -33.90625 L 32.15625 -33.703125 L 39.078125 -33.90625 L 38.5625 -53.03125 L 58.09375 -53.03125 Z M 57.0625 -17.359375" transform="translate(188.325 78.885)"/></g></g></g><g><g><g><path d="M 45.90625 -51.6875 L 44.859375 -37.734375 L 33.1875 -38.359375 L 32.875 -38.359375 L 32.453125 -17.359375 L 33.1875 0 L 14.0625 0 L 14.984375 -15.40625 L 14.578125 -38.359375 L 14.15625 -38.359375 L 2.375 -37.734375 L 1.234375 -39.078125 L 2.28125 -53.03125 L 44.859375 -53.03125 Z M 45.90625 -51.6875" transform="translate(257.072 78.885)"/></g></g></g><g><g><g><path d="M 33.796875 -53.03125 C 40.210938 -53.03125 45.160156 -51.53125 48.640625 -48.53125 C 52.117188 -45.53125 53.859375 -41.273438 53.859375 -35.765625 C 53.859375 -31.492188 52.769531 -27.703125 50.59375 -24.390625 C 48.425781 -21.085938 45.378906 -18.519531 41.453125 -16.6875 C 37.523438 -14.863281 33.007812 -13.953125 27.90625 -13.953125 L 24.09375 -13.953125 L 24.703125 0 L 5.484375 0 L 6.40625 -15.40625 L 5.484375 -53.03125 Z M 30.28125 -27.1875 C 31.53125 -28.15625 32.410156 -29.117188 32.921875 -30.078125 C 33.441406 -31.046875 33.703125 -32.320312 33.703125 -33.90625 C 33.703125 -35.976562 33.164062 -37.460938 32.09375 -38.359375 C 31.03125 -39.253906 29.289062 -39.769531 26.875 -39.90625 L 24.609375 -39.703125 L 24.1875 -27.59375 Z M 30.28125 -27.1875" transform="translate(309.588 78.885)"/></g></g></g><g clip-path="url(#a)"><g clip-path="url(#b)"><path fill="url(#c)" d="M 5.757812 23.304688 L 5.757812 172.085938 L 124.691406 172.085938 L 124.691406 23.304688 Z M 5.757812 23.304688"/></g></g><g fill="#23242C"><g><g><path d="M 8.359375 0.234375 C 6.929688 0.234375 5.640625 -0.0703125 4.484375 -0.6875 C 3.335938 -1.3125 2.429688 -2.171875 1.765625 -3.265625 C 1.109375 -4.367188 0.78125 -5.613281 0.78125 -7 C 0.78125 -8.382812 1.109375 -9.625 1.765625 -10.71875 C 2.429688 -11.820312 3.335938 -12.679688 4.484375 -13.296875 C 5.640625 -13.921875 6.9375 -14.234375 8.375 -14.234375 C 9.59375 -14.234375 10.691406 -14.019531 11.671875 -13.59375 C 12.648438 -13.164062 13.472656 -12.554688 14.140625 -11.765625 L 12.0625 -9.84375 C 11.113281 -10.9375 9.941406 -11.484375 8.546875 -11.484375 C 7.671875 -11.484375 6.894531 -11.289062 6.21875 -10.90625 C 5.539062 -10.53125 5.007812 -10 4.625 -9.3125 C 4.25 -8.632812 4.0625 -7.863281 4.0625 -7 C 4.0625 -6.132812 4.25 -5.359375 4.625 -4.671875 C 5.007812 -3.992188 5.539062 -3.460938 6.21875 -3.078125 C 6.894531 -2.703125 7.671875 -2.515625 8.546875 -2.515625 C 9.941406 -2.515625 11.113281 -3.070312 12.0625 -4.1875 L 14.140625 -2.265625 C 13.472656 -1.453125 12.644531 -0.832031 11.65625 -0.40625 C 10.675781 0.0195312 9.578125 0.234375 8.359375 0.234375 Z M 8.359375 0.234375" transform="translate(135.317 114.632)"/></g></g></g><g fill="#23242C"><g><g><path d="M 1.65625 -14 L 4.90625 -14 L 4.90625 0 L 1.65625 0 Z M 1.65625 -14" transform="translate(151.182 114.632)"/></g></g></g><g fill="#23242C"><g><g><path d="M 14.5 -14 L 14.5 0 L 11.84375 0 L 4.859375 -8.5 L 4.859375 0 L 1.65625 0 L 1.65625 -14 L 4.34375 -14 L 11.296875 -5.5 L 11.296875 -14 Z M 14.5 -14" transform="translate(158.955 114.632)"/></g></g></g><g fill="#23242C"><g><g><path d="M 8.359375 0.234375 C 6.929688 0.234375 5.640625 -0.0703125 4.484375 -0.6875 C 3.335938 -1.3125 2.429688 -2.171875 1.765625 -3.265625 C 1.109375 -4.367188 0.78125 -5.613281 0.78125 -7 C 0.78125 -8.382812 1.109375 -9.625 1.765625 -10.71875 C 2.429688 -11.820312 3.335938 -12.679688 4.484375 -13.296875 C 5.640625 -13.921875 6.9375 -14.234375 8.375 -14.234375 C 9.59375 -14.234375 10.691406 -14.019531 11.671875 -13.59375 C 12.648438 -13.164062 13.472656 -12.554688 14.140625 -11.765625 L 12.0625 -9.84375 C 11.113281 -10.9375 9.941406 -11.484375 8.546875 -11.484375 C 7.671875 -11.484375 6.894531 -11.289062 6.21875 -10.90625 C 5.539062 -10.53125 5.007812 -10 4.625 -9.3125 C 4.25 -8.632812 4.0625 -7.863281 4.0625 -7 C 4.0625 -6.132812 4.25 -5.359375 4.625 -4.671875 C 5.007812 -3.992188 5.539062 -3.460938 6.21875 -3.078125 C 6.894531 -2.703125 7.671875 -2.515625 8.546875 -2.515625 C 9.941406 -2.515625 11.113281 -3.070312 12.0625 -4.1875 L 14.140625 -2.265625 C 13.472656 -1.453125 12.644531 -0.832031 11.65625 -0.40625 C 10.675781 0.0195312 9.578125 0.234375 8.359375 0.234375 Z M 8.359375 0.234375" transform="translate(176.318 114.632)"/></g></g></g><g fill="#23242C"><g><g><path d="M 1.65625 -14 L 4.90625 -14 L 4.90625 0 L 1.65625 0 Z M 1.65625 -14" transform="translate(192.183 114.632)"/></g></g></g><g fill="#23242C"><g><g><path d="M 14.5 -14 L 14.5 0 L 11.84375 0 L 4.859375 -8.5 L 4.859375 0 L 1.65625 0 L 1.65625 -14 L 4.34375 -14 L 11.296875 -5.5 L 11.296875 -14 Z M 14.5 -14" transform="translate(199.956 114.632)"/></g></g></g><g fill="#23242C"><g><g><path d="M 14.5 -14 L 14.5 0 L 11.84375 0 L 4.859375 -8.5 L 4.859375 0 L 1.65625 0 L 1.65625 -14 L 4.34375 -14 L 11.296875 -5.5 L 11.296875 -14 Z M 14.5 -14" transform="translate(217.32 114.632)"/></g></g></g><g fill="#23242C"><g><g><path d="M 10.875 -3 L 4.375 -3 L 3.140625 0 L -0.1875 0 L 6.0625 -14 L 9.265625 -14 L 15.515625 0 L 12.125 0 Z M 9.859375 -5.453125 L 7.640625 -10.8125 L 5.421875 -5.453125 Z M 9.859375 -5.453125" transform="translate(234.682 114.632)"/></g></g></g><g fill="#23242C"><g><g><path d="M 4.5625 -11.359375 L 0.078125 -11.359375 L 0.078125 -14 L 12.28125 -14 L 12.28125 -11.359375 L 7.796875 -11.359375 L 7.796875 0 L 4.5625 0 Z M 4.5625 -11.359375" transform="translate(251.206 114.632)"/></g></g></g><g fill="#23242C"><g><g><path d="M 1.65625 -14 L 4.90625 -14 L 4.90625 0 L 1.65625 0 Z M 1.65625 -14" transform="translate(264.773 114.632)"/></g></g></g><g fill="#23242C"><g><g><path d="M 15.125 -14 L 9.0625 0 L 5.859375 0 L -0.1875 -14 L 3.3125 -14 L 7.578125 -4 L 11.90625 -14 Z M 15.125 -14" transform="translate(279.42 114.632)"/></g></g></g><g fill="#23242C"><g><g><path d="M 1.65625 -14 L 4.90625 -14 L 4.90625 0 L 1.65625 0 Z M 1.65625 -14" transform="translate(295.545 114.632)"/></g></g></g><g fill="#23242C"><g><g><path d="M 6.265625 0.234375 C 5.148438 0.234375 4.078125 0.0859375 3.046875 -0.203125 C 2.015625 -0.503906 1.1875 -0.894531 0.5625 -1.375 L 1.65625 -3.8125 C 2.257812 -3.375 2.972656 -3.019531 3.796875 -2.75 C 4.628906 -2.488281 5.457031 -2.359375 6.28125 -2.359375 C 7.195312 -2.359375 7.875 -2.492188 8.3125 -2.765625 C 8.757812 -3.046875 8.984375 -3.410156 8.984375 -3.859375 C 8.984375 -4.191406 8.851562 -4.46875 8.59375 -4.6875 C 8.332031 -4.90625 8 -5.082031 7.59375 -5.21875 C 7.1875 -5.351562 6.632812 -5.5 5.9375 -5.65625 C 4.875 -5.914062 4 -6.171875 3.3125 -6.421875 C 2.632812 -6.671875 2.050781 -7.078125 1.5625 -7.640625 C 1.082031 -8.203125 0.84375 -8.945312 0.84375 -9.875 C 0.84375 -10.6875 1.0625 -11.421875 1.5 -12.078125 C 1.9375 -12.742188 2.597656 -13.269531 3.484375 -13.65625 C 4.367188 -14.039062 5.453125 -14.234375 6.734375 -14.234375 C 7.628906 -14.234375 8.503906 -14.125 9.359375 -13.90625 C 10.210938 -13.695312 10.957031 -13.394531 11.59375 -13 L 10.59375 -10.546875 C 9.300781 -11.273438 8.007812 -11.640625 6.71875 -11.640625 C 5.8125 -11.640625 5.140625 -11.492188 4.703125 -11.203125 C 4.273438 -10.910156 4.0625 -10.523438 4.0625 -10.046875 C 4.0625 -9.554688 4.3125 -9.195312 4.8125 -8.96875 C 5.3125 -8.738281 6.070312 -8.507812 7.09375 -8.28125 C 8.164062 -8.03125 9.039062 -7.773438 9.71875 -7.515625 C 10.394531 -7.265625 10.976562 -6.863281 11.46875 -6.3125 C 11.957031 -5.769531 12.203125 -5.03125 12.203125 -4.09375 C 12.203125 -3.300781 11.976562 -2.570312 11.53125 -1.90625 C 11.082031 -1.25 10.410156 -0.726562 9.515625 -0.34375 C 8.628906 0.0390625 7.546875 0.234375 6.265625 0.234375 Z M 6.265625 0.234375" transform="translate(303.319 114.632)"/></g></g></g><g fill="#23242C"><g><g><path d="M 7.875 0.234375 C 5.875 0.234375 4.316406 -0.316406 3.203125 -1.421875 C 2.097656 -2.523438 1.546875 -4.101562 1.546875 -6.15625 L 1.546875 -14 L 4.78125 -14 L 4.78125 -6.28125 C 4.78125 -3.769531 5.820312 -2.515625 7.90625 -2.515625 C 8.914062 -2.515625 9.6875 -2.816406 10.21875 -3.421875 C 10.75 -4.035156 11.015625 -4.988281 11.015625 -6.28125 L 11.015625 -14 L 14.21875 -14 L 14.21875 -6.15625 C 14.21875 -4.101562 13.660156 -2.523438 12.546875 -1.421875 C 11.429688 -0.316406 9.875 0.234375 7.875 0.234375 Z M 7.875 0.234375" transform="translate(317.285 114.632)"/></g></g></g><g fill="#23242C"><g><g><path d="M 10.875 -3 L 4.375 -3 L 3.140625 0 L -0.1875 0 L 6.0625 -14 L 9.265625 -14 L 15.515625 0 L 12.125 0 Z M 9.859375 -5.453125 L 7.640625 -10.8125 L 5.421875 -5.453125 Z M 9.859375 -5.453125" transform="translate(334.249 114.632)"/></g></g></g><g fill="#23242C"><g><g><path d="M 1.65625 -14 L 4.90625 -14 L 4.90625 -2.640625 L 11.921875 -2.640625 L 11.921875 0 L 1.65625 0 Z M 1.65625 -14" transform="translate(350.772 114.632)"/></g></g></g><g fill="#23242C"><g><g><path d="M 14.5 -14 L 14.5 0 L 11.265625 0 L 11.265625 -5.734375 L 4.90625 -5.734375 L 4.90625 0 L 1.65625 0 L 1.65625 -14 L 4.90625 -14 L 4.90625 -8.484375 L 11.265625 -8.484375 L 11.265625 -14 Z M 14.5 -14" transform="translate(135.317 141.446)"/></g></g></g><g fill="#23242C"><g><g><path d="M 1.65625 -14 L 4.90625 -14 L 4.90625 0 L 1.65625 0 Z M 1.65625 -14" transform="translate(152.68 141.446)"/></g></g></g><g fill="#23242C"><g><g><path d="M 11.125 -7.21875 L 14.078125 -7.21875 L 14.078125 -1.546875 C 13.316406 -0.972656 12.4375 -0.53125 11.4375 -0.21875 C 10.4375 0.0820312 9.429688 0.234375 8.421875 0.234375 C 6.960938 0.234375 5.65625 -0.0703125 4.5 -0.6875 C 3.34375 -1.3125 2.429688 -2.171875 1.765625 -3.265625 C 1.109375 -4.367188 0.78125 -5.613281 0.78125 -7 C 0.78125 -8.382812 1.109375 -9.625 1.765625 -10.71875 C 2.429688 -11.820312 3.347656 -12.679688 4.515625 -13.296875 C 5.691406 -13.921875 7.015625 -14.234375 8.484375 -14.234375 C 9.703125 -14.234375 10.8125 -14.023438 11.8125 -13.609375 C 12.8125 -13.203125 13.65625 -12.601562 14.34375 -11.8125 L 12.265625 -9.90625 C 11.265625 -10.957031 10.054688 -11.484375 8.640625 -11.484375 C 7.742188 -11.484375 6.945312 -11.296875 6.25 -10.921875 C 5.5625 -10.546875 5.023438 -10.015625 4.640625 -9.328125 C 4.253906 -8.648438 4.0625 -7.875 4.0625 -7 C 4.0625 -6.132812 4.253906 -5.359375 4.640625 -4.671875 C 5.023438 -3.992188 5.5625 -3.460938 6.25 -3.078125 C 6.9375 -2.703125 7.71875 -2.515625 8.59375 -2.515625 C 9.53125 -2.515625 10.375 -2.71875 11.125 -3.125 Z M 11.125 -7.21875" transform="translate(160.454 141.446)"/></g></g></g><g fill="#23242C"><g><g><path d="M 14.5 -14 L 14.5 0 L 11.265625 0 L 11.265625 -5.734375 L 4.90625 -5.734375 L 4.90625 0 L 1.65625 0 L 1.65625 -14 L 4.90625 -14 L 4.90625 -8.484375 L 11.265625 -8.484375 L 11.265625 -14 Z M 14.5 -14" transform="translate(177.077 141.446)"/></g></g></g><g fill="#23242C"><g><g><path d="M 4.5625 -11.359375 L 0.078125 -11.359375 L 0.078125 -14 L 12.28125 -14 L 12.28125 -11.359375 L 7.796875 -11.359375 L 7.796875 0 L 4.5625 0 Z M 4.5625 -11.359375" transform="translate(201.315 141.446)"/></g></g></g><g fill="#23242C"><g><g><path d="M 14.5 -14 L 14.5 0 L 11.265625 0 L 11.265625 -5.734375 L 4.90625 -5.734375 L 4.90625 0 L 1.65625 0 L 1.65625 -14 L 4.90625 -14 L 4.90625 -8.484375 L 11.265625 -8.484375 L 11.265625 -14 Z M 14.5 -14" transform="translate(214.882 141.446)"/></g></g></g><g fill="#23242C"><g><g><path d="M 10.578125 0 L 7.875 -3.90625 L 4.90625 -3.90625 L 4.90625 0 L 1.65625 0 L 1.65625 -14 L 7.71875 -14 C 8.957031 -14 10.03125 -13.789062 10.9375 -13.375 C 11.851562 -12.96875 12.554688 -12.382812 13.046875 -11.625 C 13.546875 -10.863281 13.796875 -9.960938 13.796875 -8.921875 C 13.796875 -7.878906 13.546875 -6.976562 13.046875 -6.21875 C 12.546875 -5.46875 11.835938 -4.894531 10.921875 -4.5 L 14.0625 0 Z M 10.515625 -8.921875 C 10.515625 -9.703125 10.257812 -10.300781 9.75 -10.71875 C 9.25 -11.144531 8.515625 -11.359375 7.546875 -11.359375 L 4.90625 -11.359375 L 4.90625 -6.484375 L 7.546875 -6.484375 C 8.515625 -6.484375 9.25 -6.695312 9.75 -7.125 C 10.257812 -7.550781 10.515625 -8.148438 10.515625 -8.921875 Z M 10.515625 -8.921875" transform="translate(232.245 141.446)"/></g></g></g><g fill="#23242C"><g><g><path d="M 8.4375 0.234375 C 6.988281 0.234375 5.679688 -0.078125 4.515625 -0.703125 C 3.347656 -1.328125 2.429688 -2.1875 1.765625 -3.28125 C 1.109375 -4.382812 0.78125 -5.625 0.78125 -7 C 0.78125 -8.375 1.109375 -9.609375 1.765625 -10.703125 C 2.429688 -11.804688 3.347656 -12.671875 4.515625 -13.296875 C 5.679688 -13.921875 6.988281 -14.234375 8.4375 -14.234375 C 9.894531 -14.234375 11.203125 -13.921875 12.359375 -13.296875 C 13.515625 -12.671875 14.425781 -11.804688 15.09375 -10.703125 C 15.757812 -9.609375 16.09375 -8.375 16.09375 -7 C 16.09375 -5.625 15.757812 -4.382812 15.09375 -3.28125 C 14.425781 -2.1875 13.515625 -1.328125 12.359375 -0.703125 C 11.203125 -0.078125 9.894531 0.234375 8.4375 0.234375 Z M 8.4375 -2.515625 C 9.269531 -2.515625 10.019531 -2.703125 10.6875 -3.078125 C 11.351562 -3.460938 11.875 -3.992188 12.25 -4.671875 C 12.625 -5.359375 12.8125 -6.132812 12.8125 -7 C 12.8125 -7.863281 12.625 -8.632812 12.25 -9.3125 C 11.875 -10 11.351562 -10.53125 10.6875 -10.90625 C 10.019531 -11.289062 9.269531 -11.484375 8.4375 -11.484375 C 7.613281 -11.484375 6.867188 -11.289062 6.203125 -10.90625 C 5.535156 -10.53125 5.007812 -10 4.625 -9.3125 C 4.25 -8.632812 4.0625 -7.863281 4.0625 -7 C 4.0625 -6.132812 4.25 -5.359375 4.625 -4.671875 C 5.007812 -3.992188 5.535156 -3.460938 6.203125 -3.078125 C 6.867188 -2.703125 7.613281 -2.515625 8.4375 -2.515625 Z M 8.4375 -2.515625" transform="translate(248.15 141.446)"/></g></g></g><g fill="#23242C"><g><g><path d="M 7.875 0.234375 C 5.875 0.234375 4.316406 -0.316406 3.203125 -1.421875 C 2.097656 -2.523438 1.546875 -4.101562 1.546875 -6.15625 L 1.546875 -14 L 4.78125 -14 L 4.78125 -6.28125 C 4.78125 -3.769531 5.820312 -2.515625 7.90625 -2.515625 C 8.914062 -2.515625 9.6875 -2.816406 10.21875 -3.421875 C 10.75 -4.035156 11.015625 -4.988281 11.015625 -6.28125 L 11.015625 -14 L 14.21875 -14 L 14.21875 -6.15625 C 14.21875 -4.101562 13.660156 -2.523438 12.546875 -1.421875 C 11.429688 -0.316406 9.875 0.234375 7.875 0.234375 Z M 7.875 0.234375" transform="translate(266.231 141.446)"/></g></g></g><g fill="#23242C"><g><g><path d="M 11.125 -7.21875 L 14.078125 -7.21875 L 14.078125 -1.546875 C 13.316406 -0.972656 12.4375 -0.53125 11.4375 -0.21875 C 10.4375 0.0820312 9.429688 0.234375 8.421875 0.234375 C 6.960938 0.234375 5.65625 -0.0703125 4.5 -0.6875 C 3.34375 -1.3125 2.429688 -2.171875 1.765625 -3.265625 C 1.109375 -4.367188 0.78125 -5.613281 0.78125 -7 C 0.78125 -8.382812 1.109375 -9.625 1.765625 -10.71875 C 2.429688 -11.820312 3.347656 -12.679688 4.515625 -13.296875 C 5.691406 -13.921875 7.015625 -14.234375 8.484375 -14.234375 C 9.703125 -14.234375 10.8125 -14.023438 11.8125 -13.609375 C 12.8125 -13.203125 13.65625 -12.601562 14.34375 -11.8125 L 12.265625 -9.90625 C 11.265625 -10.957031 10.054688 -11.484375 8.640625 -11.484375 C 7.742188 -11.484375 6.945312 -11.296875 6.25 -10.921875 C 5.5625 -10.546875 5.023438 -10.015625 4.640625 -9.328125 C 4.253906 -8.648438 4.0625 -7.875 4.0625 -7 C 4.0625 -6.132812 4.253906 -5.359375 4.640625 -4.671875 C 5.023438 -3.992188 5.5625 -3.460938 6.25 -3.078125 C 6.9375 -2.703125 7.71875 -2.515625 8.59375 -2.515625 C 9.53125 -2.515625 10.375 -2.71875 11.125 -3.125 Z M 11.125 -7.21875" transform="translate(283.195 141.446)"/></g></g></g><g fill="#23242C"><g><g><path d="M 14.5 -14 L 14.5 0 L 11.265625 0 L 11.265625 -5.734375 L 4.90625 -5.734375 L 4.90625 0 L 1.65625 0 L 1.65625 -14 L 4.90625 -14 L 4.90625 -8.484375 L 11.265625 -8.484375 L 11.265625 -14 Z M 14.5 -14" transform="translate(299.819 141.446)"/></g></g></g><g fill="#23242C"><g><g><path d="M 7.71875 -14 C 8.957031 -14 10.03125 -13.789062 10.9375 -13.375 C 11.851562 -12.96875 12.554688 -12.382812 13.046875 -11.625 C 13.546875 -10.863281 13.796875 -9.960938 13.796875 -8.921875 C 13.796875 -7.890625 13.546875 -6.988281 13.046875 -6.21875 C 12.554688 -5.457031 11.851562 -4.875 10.9375 -4.46875 C 10.03125 -4.0625 8.957031 -3.859375 7.71875 -3.859375 L 4.90625 -3.859375 L 4.90625 0 L 1.65625 0 L 1.65625 -14 Z M 7.546875 -6.5 C 8.515625 -6.5 9.25 -6.707031 9.75 -7.125 C 10.257812 -7.550781 10.515625 -8.148438 10.515625 -8.921875 C 10.515625 -9.703125 10.257812 -10.300781 9.75 -10.71875 C 9.25 -11.144531 8.515625 -11.359375 7.546875 -11.359375 L 4.90625 -11.359375 L 4.90625 -6.5 Z M 7.546875 -6.5" transform="translate(317.182 141.446)"/></g></g></g><g fill="#23242C"><g><g><path d="M 7.875 0.234375 C 5.875 0.234375 4.316406 -0.316406 3.203125 -1.421875 C 2.097656 -2.523438 1.546875 -4.101562 1.546875 -6.15625 L 1.546875 -14 L 4.78125 -14 L 4.78125 -6.28125 C 4.78125 -3.769531 5.820312 -2.515625 7.90625 -2.515625 C 8.914062 -2.515625 9.6875 -2.816406 10.21875 -3.421875 C 10.75 -4.035156 11.015625 -4.988281 11.015625 -6.28125 L 11.015625 -14 L 14.21875 -14 L 14.21875 -6.15625 C 14.21875 -4.101562 13.660156 -2.523438 12.546875 -1.421875 C 11.429688 -0.316406 9.875 0.234375 7.875 0.234375 Z M 7.875 0.234375" transform="translate(333.026 141.446)"/></g></g></g><g fill="#23242C"><g><g><path d="M 4.5625 -11.359375 L 0.078125 -11.359375 L 0.078125 -14 L 12.28125 -14 L 12.28125 -11.359375 L 7.796875 -11.359375 L 7.796875 0 L 4.5625 0 Z M 4.5625 -11.359375" transform="translate(349.99 141.446)"/></g></g></g><g fill="#23242C"><g><g><path d="M 12.5 -2.59375 L 12.5 0 L 1.65625 0 L 1.65625 -14 L 12.234375 -14 L 12.234375 -11.40625 L 4.875 -11.40625 L 4.875 -8.359375 L 11.375 -8.359375 L 11.375 -5.84375 L 4.875 -5.84375 L 4.875 -2.59375 Z M 12.5 -2.59375" transform="translate(135.317 168.26)"/></g></g></g><g fill="#23242C"><g><g><path d="M 12.5 -2.59375 L 12.5 0 L 1.65625 0 L 1.65625 -14 L 12.234375 -14 L 12.234375 -11.40625 L 4.875 -11.40625 L 4.875 -8.359375 L 11.375 -8.359375 L 11.375 -5.84375 L 4.875 -5.84375 L 4.875 -2.59375 Z M 12.5 -2.59375" transform="translate(149.943 168.26)"/></g></g></g><g fill="#23242C"><g><g><path d="M 11.125 -7.21875 L 14.078125 -7.21875 L 14.078125 -1.546875 C 13.316406 -0.972656 12.4375 -0.53125 11.4375 -0.21875 C 10.4375 0.0820312 9.429688 0.234375 8.421875 0.234375 C 6.960938 0.234375 5.65625 -0.0703125 4.5 -0.6875 C 3.34375 -1.3125 2.429688 -2.171875 1.765625 -3.265625 C 1.109375 -4.367188 0.78125 -5.613281 0.78125 -7 C 0.78125 -8.382812 1.109375 -9.625 1.765625 -10.71875 C 2.429688 -11.820312 3.347656 -12.679688 4.515625 -13.296875 C 5.691406 -13.921875 7.015625 -14.234375 8.484375 -14.234375 C 9.703125 -14.234375 10.8125 -14.023438 11.8125 -13.609375 C 12.8125 -13.203125 13.65625 -12.601562 14.34375 -11.8125 L 12.265625 -9.90625 C 11.265625 -10.957031 10.054688 -11.484375 8.640625 -11.484375 C 7.742188 -11.484375 6.945312 -11.296875 6.25 -10.921875 C 5.5625 -10.546875 5.023438 -10.015625 4.640625 -9.328125 C 4.253906 -8.648438 4.0625 -7.875 4.0625 -7 C 4.0625 -6.132812 4.253906 -5.359375 4.640625 -4.671875 C 5.023438 -3.992188 5.5625 -3.460938 6.25 -3.078125 C 6.9375 -2.703125 7.71875 -2.515625 8.59375 -2.515625 C 9.53125 -2.515625 10.375 -2.71875 11.125 -3.125 Z M 11.125 -7.21875" transform="translate(164.57 168.26)"/></g></g></g><g fill="#23242C"><g><g><path d="M 7.71875 -14 C 8.957031 -14 10.03125 -13.789062 10.9375 -13.375 C 11.851562 -12.96875 12.554688 -12.382812 13.046875 -11.625 C 13.546875 -10.863281 13.796875 -9.960938 13.796875 -8.921875 C 13.796875 -7.890625 13.546875 -6.988281 13.046875 -6.21875 C 12.554688 -5.457031 11.851562 -4.875 10.9375 -4.46875 C 10.03125 -4.0625 8.957031 -3.859375 7.71875 -3.859375 L 4.90625 -3.859375 L 4.90625 0 L 1.65625 0 L 1.65625 -14 Z M 7.546875 -6.5 C 8.515625 -6.5 9.25 -6.707031 9.75 -7.125 C 10.257812 -7.550781 10.515625 -8.148438 10.515625 -8.921875 C 10.515625 -9.703125 10.257812 -10.300781 9.75 -10.71875 C 9.25 -11.144531 8.515625 -11.359375 7.546875 -11.359375 L 4.90625 -11.359375 L 4.90625 -6.5 Z M 7.546875 -6.5" transform="translate(188.067 168.26)"/></g></g></g><g fill="#23242C"><g><g><path d="M 1.65625 -14 L 4.90625 -14 L 4.90625 0 L 1.65625 0 Z M 1.65625 -14" transform="translate(203.912 168.26)"/></g></g></g><g fill="#23242C"><g><g><path d="M 7.71875 -14 C 8.957031 -14 10.03125 -13.789062 10.9375 -13.375 C 11.851562 -12.96875 12.554688 -12.382812 13.046875 -11.625 C 13.546875 -10.863281 13.796875 -9.960938 13.796875 -8.921875 C 13.796875 -7.890625 13.546875 -6.988281 13.046875 -6.21875 C 12.554688 -5.457031 11.851562 -4.875 10.9375 -4.46875 C 10.03125 -4.0625 8.957031 -3.859375 7.71875 -3.859375 L 4.90625 -3.859375 L 4.90625 0 L 1.65625 0 L 1.65625 -14 Z M 7.546875 -6.5 C 8.515625 -6.5 9.25 -6.707031 9.75 -7.125 C 10.257812 -7.550781 10.515625 -8.148438 10.515625 -8.921875 C 10.515625 -9.703125 10.257812 -10.300781 9.75 -10.71875 C 9.25 -11.144531 8.515625 -11.359375 7.546875 -11.359375 L 4.90625 -11.359375 L 4.90625 -6.5 Z M 7.546875 -6.5" transform="translate(211.685 168.26)"/></g></g></g><g fill="#23242C"><g><g><path d="M 12.5 -2.59375 L 12.5 0 L 1.65625 0 L 1.65625 -14 L 12.234375 -14 L 12.234375 -11.40625 L 4.875 -11.40625 L 4.875 -8.359375 L 11.375 -8.359375 L 11.375 -5.84375 L 4.875 -5.84375 L 4.875 -2.59375 Z M 12.5 -2.59375" transform="translate(227.53 168.26)"/></g></g></g><g fill="#23242C"><g><g><path d="M 1.65625 -14 L 4.90625 -14 L 4.90625 -2.640625 L 11.921875 -2.640625 L 11.921875 0 L 1.65625 0 Z M 1.65625 -14" transform="translate(242.156 168.26)"/></g></g></g><g fill="#23242C"><g><g><path d="M 1.65625 -14 L 4.90625 -14 L 4.90625 0 L 1.65625 0 Z M 1.65625 -14" transform="translate(255.443 168.26)"/></g></g></g><g fill="#23242C"><g><g><path d="M 14.5 -14 L 14.5 0 L 11.84375 0 L 4.859375 -8.5 L 4.859375 0 L 1.65625 0 L 1.65625 -14 L 4.34375 -14 L 11.296875 -5.5 L 11.296875 -14 Z M 14.5 -14" transform="translate(263.217 168.26)"/></g></g></g><g fill="#23242C"><g><g><path d="M 12.5 -2.59375 L 12.5 0 L 1.65625 0 L 1.65625 -14 L 12.234375 -14 L 12.234375 -11.40625 L 4.875 -11.40625 L 4.875 -8.359375 L 11.375 -8.359375 L 11.375 -5.84375 L 4.875 -5.84375 L 4.875 -2.59375 Z M 12.5 -2.59375" transform="translate(280.58 168.26)"/></g></g></g></svg>